{
    "asset" : {
        "generator" : "Khronos glTF Blender I/O v3.2.43",
        "version" : "2.0"
    },
    "scene" : 0,
    "scenes" : [
        {
            "name" : "Scene",
            "nodes" : [
                0,
                1,
                2,
                3,
                4
            ]
        }
    ],
    "nodes" : [
        {
            "name" : "Empty",
            "rotation" : [
                0.7071068286895752,
                0,
                0,
                0.7071067094802856
            ]
        },
        {
            "name" : "Empty.001",
            "rotation" : [
                0.5,
                0.5,
                -0.5,
                0.5
            ]
        },
        {
            "name" : "Empty.002"
        },
        {
            "mesh" : 0,
            "name" : "Sphere",
            "scale" : [
                0.3175603747367859,
                0.3175603747367859,
                0.3175603747367859
            ],
            "translation" : [
                0,
                2.0620927810668945,
                0
            ]
        },
        {
            "mesh" : 1,
            "name" : "Sphere.001",
            "scale" : [
                0.3175603747367859,
                0.3175603747367859,
                0.3175603747367859
            ],
            "translation" : [
                -11.087065696716309,
                9.836647033691406,
                0.888992428779602
            ]
        }
    ],
    "meshes" : [
        {
            "name" : "Sphere",
            "primitives" : [
                {
                    "attributes" : {
                        "POSITION" : 0,
                        "NORMAL" : 1,
                        "TEXCOORD_0" : 2
                    },
                    "indices" : 3
                }
            ]
        },
        {
            "name" : "Sphere.001",
            "primitives" : [
                {
                    "attributes" : {
                        "POSITION" : 4,
                        "NORMAL" : 5,
                        "TEXCOORD_0" : 6
                    },
                    "indices" : 7
                }
            ]
        }
    ],
    "accessors" : [
        {
            "bufferView" : 0,
            "componentType" : 5126,
            "count" : 347,
            "max" : [
                7.258369445800781,
                1.0201002359390259,
                1.7829859256744385
            ],
            "min" : [
                0,
                -13.942487716674805,
                -1.0992977619171143
            ],
            "type" : "VEC3"
        },
        {
            "bufferView" : 1,
            "componentType" : 5126,
            "count" : 347,
            "type" : "VEC3"
        },
        {
            "bufferView" : 2,
            "componentType" : 5126,
            "count" : 347,
            "type" : "VEC2"
        },
        {
            "bufferView" : 3,
            "componentType" : 5123,
            "count" : 1848,
            "type" : "SCALAR"
        },
        {
            "bufferView" : 4,
            "componentType" : 5126,
            "count" : 1194,
            "max" : [
                7.258369445800781,
                1.0201002359390259,
                1.7829859256744385
            ],
            "min" : [
                0,
                -13.942487716674805,
                -1.0992977619171143
            ],
            "type" : "VEC3"
        },
        {
            "bufferView" : 5,
            "componentType" : 5126,
            "count" : 1194,
            "type" : "VEC3"
        },
        {
            "bufferView" : 6,
            "componentType" : 5126,
            "count" : 1194,
            "type" : "VEC2"
        },
        {
            "bufferView" : 7,
            "componentType" : 5123,
            "count" : 1764,
            "type" : "SCALAR"
        }
    ],
    "bufferViews" : [
        {
            "buffer" : 0,
            "byteLength" : 4164,
            "byteOffset" : 0
        },
        {
            "buffer" : 0,
            "byteLength" : 4164,
            "byteOffset" : 4164
        },
        {
            "buffer" : 0,
            "byteLength" : 2776,
            "byteOffset" : 8328
        },
        {
            "buffer" : 0,
            "byteLength" : 3696,
            "byteOffset" : 11104
        },
        {
            "buffer" : 0,
            "byteLength" : 14328,
            "byteOffset" : 14800
        },
        {
            "buffer" : 0,
            "byteLength" : 14328,
            "byteOffset" : 29128
        },
        {
            "buffer" : 0,
            "byteLength" : 9552,
            "byteOffset" : 43456
        },
        {
            "buffer" : 0,
            "byteLength" : 3528,
            "byteOffset" : 53008
        }
    ],
    "buffers" : [
        {
            "byteLength" : 56536,
            "uri" : "data:application/octet-stream;base64,"
        }
    ]
}
